# Blender v2.90.1 OBJ File: ''
# www.blender.org
mtllib spaceship.mtl
o Cube.001
v 1.240349 -0.000333 -0.372761
v 1.240349 -0.000333 1.000000
v 0.000000 -0.000333 1.000000
v 0.000000 -0.000333 -0.372761
v 0.960107 0.565249 -0.372760
v 0.582431 0.409363 -1.000000
v 0.507604 0.512063 -1.000000
v 0.653542 0.986010 -0.372760
v 3.119281 -0.942804 0.949260
v 1.240349 0.180615 -0.372760
v 3.119281 -0.761855 0.949260
v 0.000000 0.409363 -1.000000
v 0.000000 0.512063 -1.000000
v 0.805783 -0.000335 4.284117
v 0.805782 0.180614 4.284118
v 0.000000 0.180614 5.383713
v 0.000000 -0.000335 5.383713
v 0.650832 0.315481 -1.000000
v 0.650832 0.271315 -1.000000
v 0.000000 0.271315 -1.000000
v 0.000000 0.315481 -1.000000
v 0.000000 -0.000333 2.156063
v 1.125746 -0.000333 1.866080
v 1.125746 0.180615 1.542580
v 3.119281 -0.761855 0.949260
v 3.457423 -0.761854 0.949261
v 3.457423 -0.942803 0.949260
v 1.240348 0.180615 0.560630
v 3.119281 -0.942804 2.322021
v 3.119280 -0.761855 1.882651
v 1.240348 0.180615 0.560630
v 3.119280 -0.761855 1.882651
v 1.240349 0.180615 -0.372760
v 0.000000 0.986010 -0.372761
v 0.000000 0.986010 1.000000
v 0.556329 0.986010 1.000001
v 0.845504 0.498033 1.630241
v 0.960107 0.565249 0.770461
v 0.538940 0.845265 1.726136
v 0.650832 0.315481 -1.000000
v 3.457423 -0.761854 1.882651
v 3.457423 -0.942803 2.322021
v 3.119280 -0.761855 2.321895
v 3.457423 -0.761854 2.321895
v 3.182715 -0.795800 2.321919
v 3.393988 -0.795800 2.321919
v 3.119281 -0.942804 2.322021
v 3.457423 -0.942803 2.322021
v 3.182715 -0.794866 3.672926
v 3.393988 -0.794866 3.672926
v 3.182715 -0.908858 2.321997
v 3.393988 -0.908857 2.321997
v 3.242466 -0.826840 3.672948
v 3.334237 -0.826840 3.672948
v 3.393988 -0.907923 3.673004
v 3.182715 -0.907923 3.673004
v 3.242466 -0.826652 3.945849
v 3.334237 -0.826652 3.945849
v 3.242466 -0.875949 3.672982
v 3.334237 -0.875949 3.672982
v 3.242466 -0.875761 3.945883
v 3.334237 -0.875761 3.945883
v 0.525541 0.310370 4.030690
v 0.000000 0.310370 5.130285
v 0.000000 0.948491 1.700656
v -1.240349 -0.000333 -0.372761
v -1.240349 -0.000333 1.000000
v -0.960107 0.565249 -0.372760
v -0.653542 0.986010 -0.372760
v -0.507604 0.512063 -1.000000
v -0.582431 0.409363 -1.000000
v -3.119281 -0.942804 0.949260
v -3.119281 -0.761855 0.949260
v -1.240349 0.180615 -0.372760
v -0.805783 -0.000335 4.284117
v -0.805782 0.180614 4.284118
v -0.650832 0.315481 -1.000000
v -0.650832 0.271315 -1.000000
v -1.125746 -0.000333 1.866080
v -1.125746 0.180615 1.542580
v -3.457423 -0.942803 0.949260
v -3.457423 -0.761854 0.949261
v -3.119281 -0.761855 0.949260
v -1.240348 0.180615 0.560630
v -3.119280 -0.761855 1.882651
v -3.119281 -0.942804 2.322021
v -3.119280 -0.761855 1.882651
v -1.240348 0.180615 0.560630
v -1.240349 0.180615 -0.372760
v -0.556329 0.986010 1.000001
v -0.845504 0.498033 1.630241
v -0.538940 0.845265 1.726136
v -0.960107 0.565249 0.770461
v -0.650832 0.315481 -1.000000
v -3.457423 -0.942803 2.322021
v -3.457423 -0.761854 1.882651
v -3.457423 -0.761854 2.321895
v -3.119280 -0.761855 2.321895
v -3.393988 -0.795800 2.321919
v -3.182715 -0.795800 2.321919
v -3.119281 -0.942804 2.322021
v -3.457423 -0.942803 2.322021
v -3.393988 -0.794866 3.672926
v -3.182715 -0.794866 3.672926
v -3.182715 -0.908858 2.321997
v -3.393988 -0.908857 2.321997
v -3.334237 -0.826840 3.672948
v -3.242466 -0.826840 3.672948
v -3.182715 -0.907923 3.673004
v -3.393988 -0.907923 3.673004
v -3.334237 -0.826652 3.945849
v -3.242466 -0.826652 3.945849
v -3.242466 -0.875949 3.672982
v -3.334237 -0.875949 3.672982
v -3.334237 -0.875761 3.945883
v -3.242466 -0.875761 3.945883
v -0.525541 0.310370 4.030690
v 0.000000 0.452315 4.853053
v 0.218978 0.452315 3.753458
v -0.218978 0.452315 3.753458
vt nan nan
vt nan nan
vt nan nan
vt nan nan
vt nan nan
vt nan nan
vt nan nan
vt nan nan
vt nan nan
vt nan nan
vt nan nan
vt nan nan
vt nan nan
vt nan nan
vt nan nan
vt nan nan
vt nan nan
vt nan nan
vt nan nan
vt nan nan
vt nan nan
vt nan nan
vt nan nan
vt nan nan
vt nan nan
vt nan nan
vt nan nan
vt nan nan
vt nan nan
vt nan nan
vt nan nan
vt nan nan
vt nan nan
vt nan nan
vt nan nan
vt nan nan
vt nan nan
vt nan nan
vt nan nan
vt nan nan
vt nan nan
vt nan nan
vt nan nan
vt nan nan
vt nan nan
vt nan nan
vt nan nan
vt nan nan
vt nan nan
vt nan nan
vt nan nan
vt nan nan
vt nan nan
vt nan nan
vt nan nan
vt nan nan
vt nan nan
vt nan nan
vt nan nan
vt nan nan
vt nan nan
vt nan nan
vt nan nan
vt nan nan
vt nan nan
vt nan nan
vt nan nan
vt nan nan
vt nan nan
vt nan nan
vt nan nan
vt nan nan
vt nan nan
vt nan nan
vt nan nan
vt nan nan
vt nan nan
vt nan nan
vt nan nan
vt nan nan
vt nan nan
vt nan nan
vt nan nan
vt nan nan
vt nan nan
vt nan nan
vt nan nan
vt nan nan
vt nan nan
vt nan nan
vt nan nan
vt nan nan
vt nan nan
vt nan nan
vt nan nan
vt nan nan
vt nan nan
vt nan nan
vt nan nan
vt nan nan
vt nan nan
vt nan nan
vt nan nan
vt nan nan
vt nan nan
vt nan nan
vt nan nan
vt nan nan
vt nan nan
vt nan nan
vt nan nan
vt nan nan
vt nan nan
vt nan nan
vt nan nan
vt nan nan
vt nan nan
vt nan nan
vt nan nan
vt nan nan
vt nan nan
vt nan nan
vt nan nan
vt nan nan
vt nan nan
vt nan nan
vt nan nan
vt nan nan
vt nan nan
vt nan nan
vt nan nan
vt nan nan
vt nan nan
vt nan nan
vt nan nan
vt nan nan
vt nan nan
vt nan nan
vt nan nan
vt nan nan
vt nan nan
vt nan nan
vt nan nan
vt nan nan
vt nan nan
vt nan nan
vt nan nan
vt nan nan
vt nan nan
vt nan nan
vt nan nan
vt nan nan
vt nan nan
vt nan nan
vt nan nan
vt nan nan
vt nan nan
vt nan nan
vt nan nan
vt nan nan
vt nan nan
vt nan nan
vt nan nan
vt nan nan
vt nan nan
vt nan nan
vt nan nan
vt nan nan
vt nan nan
vt nan nan
vt nan nan
vt nan nan
vt nan nan
vt nan nan
vt nan nan
vt nan nan
vt nan nan
vt nan nan
vt nan nan
vt nan nan
vt nan nan
vt nan nan
vt nan nan
vt nan nan
vt nan nan
vt nan nan
vt nan nan
vt nan nan
vt nan nan
vt nan nan
vt nan nan
vt nan nan
vt nan nan
vt nan nan
vt nan nan
vt nan nan
vt nan nan
vt nan nan
vt nan nan
vt nan nan
vt nan nan
vt nan nan
vt nan nan
vt nan nan
vt nan nan
vt nan nan
vt nan nan
vt nan nan
vt nan nan
vt nan nan
vt nan nan
vt nan nan
vt nan nan
vt nan nan
vt nan nan
vt nan nan
vt nan nan
vt nan nan
vt nan nan
vt nan nan
vt nan nan
vt nan nan
vt nan nan
vt nan nan
vt nan nan
vt nan nan
vt nan nan
vt nan nan
vt nan nan
vt nan nan
vt nan nan
vt nan nan
vt nan nan
vt nan nan
vt nan nan
vt nan nan
vt nan nan
vt nan nan
vt nan nan
vt nan nan
vt nan nan
vt nan nan
vt nan nan
vt nan nan
vt nan nan
vt nan nan
vt nan nan
vt nan nan
vt nan nan
vt nan nan
vt nan nan
vt nan nan
vt nan nan
vt nan nan
vt nan nan
vt nan nan
vt nan nan
vt nan nan
vt nan nan
vt nan nan
vt nan nan
vt nan nan
vt nan nan
vt nan nan
vt nan nan
vt nan nan
vt nan nan
vt nan nan
vt nan nan
vt nan nan
vt nan nan
vt nan nan
vt nan nan
vt nan nan
vt nan nan
vt nan nan
vt nan nan
vt nan nan
vt nan nan
vt nan nan
vt nan nan
vt nan nan
vt nan nan
vt nan nan
vt nan nan
vt nan nan
vt nan nan
vt nan nan
vt nan nan
vt nan nan
vt nan nan
vt nan nan
vt nan nan
vt nan nan
vt nan nan
vt nan nan
vt nan nan
vt nan nan
vt nan nan
vt nan nan
vt nan nan
vt nan nan
vt nan nan
vt nan nan
vt nan nan
vt nan nan
vt nan nan
vt nan nan
vt nan nan
vt nan nan
vt nan nan
vt nan nan
vt nan nan
vt nan nan
vt nan nan
vt nan nan
vt nan nan
vt nan nan
vt nan nan
vt nan nan
vt nan nan
vt nan nan
vt nan nan
vt nan nan
vt nan nan
vt nan nan
vt nan nan
vt nan nan
vt nan nan
vt nan nan
vt nan nan
vt nan nan
vt nan nan
vt nan nan
vt nan nan
vt nan nan
vt nan nan
vt nan nan
vt nan nan
vt nan nan
vt nan nan
vt nan nan
vt nan nan
vt nan nan
vt nan nan
vt nan nan
vt nan nan
vt nan nan
vt nan nan
vt nan nan
vt nan nan
vt nan nan
vt nan nan
vt nan nan
vt nan nan
vt nan nan
vt nan nan
vt nan nan
vt nan nan
vt nan nan
vt nan nan
vt nan nan
vt nan nan
vt nan nan
vt nan nan
vt nan nan
vt nan nan
vt nan nan
vt nan nan
vt nan nan
vt nan nan
vt nan nan
vt nan nan
vt nan nan
vt nan nan
vt nan nan
vt nan nan
vt nan nan
vt nan nan
vt nan nan
vt nan nan
vt nan nan
vt nan nan
vt nan nan
vt nan nan
vt nan nan
vt nan nan
vt nan nan
vt nan nan
vt nan nan
vt nan nan
vt nan nan
vt nan nan
vt nan nan
vt nan nan
vt nan nan
vt nan nan
vt nan nan
vt nan nan
vt nan nan
vt nan nan
vt nan nan
vt nan nan
vt nan nan
vt nan nan
vt nan nan
vt nan nan
vt nan nan
vt nan nan
vt nan nan
vt nan nan
vt nan nan
vt nan nan
vt nan nan
vt nan nan
vt nan nan
vt nan nan
vt nan nan
vt nan nan
vt nan nan
vt nan nan
vt nan nan
vt nan nan
vt nan nan
vt nan nan
vt nan nan
vt nan nan
vt nan nan
vt nan nan
vt nan nan
vt nan nan
vt nan nan
vt nan nan
vt nan nan
vt nan nan
vt nan nan
vt nan nan
vt nan nan
vt nan nan
vt nan nan
vt nan nan
vt nan nan
vt nan nan
vt nan nan
vt nan nan
vt nan nan
vt nan nan
vt nan nan
vt nan nan
vt nan nan
vt nan nan
vt nan nan
vt nan nan
vt nan nan
vt nan nan
vt nan nan
vt nan nan
vt nan nan
vt nan nan
vt nan nan
vt nan nan
vt nan nan
vt nan nan
vt nan nan
vn 0.0000 -1.0000 -0.0000
vn 0.6829 0.4976 -0.5349
vn 0.5754 0.0000 -0.8178
vn 0.0000 0.0000 -1.0000
vn 0.8066 0.0000 0.5911
vn 0.9864 0.1094 0.1223
vn 0.1922 0.9074 0.3737
vn 0.4484 0.8939 0.0000
vn 0.7287 0.0000 -0.6849
vn 0.0000 0.0000 1.0000
vn -0.0000 1.0000 0.0000
vn 0.7564 0.6375 0.1465
vn 0.0000 -0.9176 -0.3974
vn 0.7678 0.6400 0.0297
vn -0.4484 -0.8939 -0.0000
vn 0.0000 0.7978 -0.6029
vn 1.0000 -0.0000 0.0000
vn 0.0000 0.0007 1.0000
vn -1.0000 -0.0000 0.0000
vn 0.0000 1.0000 -0.0007
vn 0.0000 -1.0000 0.0007
vn 0.3927 0.8884 0.2377
vn 0.8001 0.5875 0.1210
vn 0.8082 0.5889 0.0000
vn 0.9606 0.2511 0.1191
vn 0.6014 0.7922 0.1038
vn 0.0902 0.9881 0.1246
vn -0.6829 0.4976 -0.5349
vn -0.5754 0.0000 -0.8178
vn -0.8066 0.0000 0.5911
vn -0.9864 0.1094 0.1223
vn -0.1922 0.9074 0.3737
vn -0.4484 0.8939 0.0000
vn -0.7287 0.0000 -0.6849
vn -0.7564 0.6375 0.1465
vn -0.7678 0.6400 0.0297
vn 0.4484 -0.8939 -0.0000
vn -0.3927 0.8884 0.2377
vn -0.8001 0.5875 0.1210
vn -0.8082 0.5889 0.0000
vn -0.9606 0.2511 0.1191
vn -0.6014 0.7922 0.1038
vn -0.0902 0.9881 0.1246
vn 0.3778 0.9084 0.1793
vn 0.4911 0.8551 0.1663
vn 0.5781 0.7941 0.1877
vn -0.3778 0.9084 0.1793
vn -0.4911 0.8551 0.1663
vn -0.5781 0.7941 0.1877
g Cube.001_Cube.001_Base
usemtl Base
s off
f 1/1/1 2/2/1 3/3/1 4/4/1
f 5/5/2 6/6/2 7/7/2 8/8/2
f 9/9/3 1/10/3 10/11/3 11/12/3
f 6/13/4 12/14/4 13/15/4 7/16/4
f 14/17/5 15/18/5 16/19/5 17/20/5
f 18/21/4 19/22/4 20/23/4 21/24/4
f 22/25/1 23/26/1 14/27/1 17/28/1
f 23/29/6 24/30/6 15/31/6 14/32/6
f 9/33/4 25/34/4 26/35/4 27/36/4
f 28/37/7 2/38/7 29/39/7 30/40/7
f 10/41/8 31/42/8 32/43/8 11/44/8
f 19/45/9 18/46/9 33/47/9 1/48/9
f 33/49/10 28/50/10 31/51/10 10/52/10
f 28/53/10 30/54/10 32/55/10 31/56/10
f 8/57/11 34/58/11 35/59/11 36/60/11
f 37/61/12 38/62/12 36/63/12 39/64/12
f 19/65/13 1/66/13 4/67/13 20/68/13
f 38/69/14 5/70/14 8/71/14 36/72/14
f 2/73/15 1/74/15 9/75/15 29/76/15
f 30/77/10 25/78/10 11/79/10 32/80/10
f 18/81/10 33/82/10 10/83/10 40/84/10
f 7/85/16 13/86/16 34/87/16 8/88/16
f 27/89/17 26/90/17 41/91/17 42/92/17
f 29/93/1 9/94/1 27/95/1 42/96/1
f 41/97/11 30/98/11 43/99/11 44/100/11
f 25/101/11 30/102/11 41/103/11 26/104/11
f 44/105/18 43/106/18 45/107/18 46/108/18
f 30/109/19 29/110/19 47/111/19 43/112/19
f 42/113/17 41/114/17 44/115/17 48/116/17
f 29/117/10 42/118/10 48/119/10 47/120/10
f 46/121/20 45/122/20 49/123/20 50/124/20
f 43/125/18 47/126/18 51/127/18 45/128/18
f 48/129/18 44/130/18 46/131/18 52/132/18
f 47/133/18 48/134/18 52/135/18 51/136/18
f 50/137/18 49/138/18 53/139/18 54/140/18
f 51/141/21 52/142/21 55/143/21 56/144/21
f 45/145/19 51/146/19 56/147/19 49/148/19
f 52/149/17 46/150/17 50/151/17 55/152/17
f 54/153/20 53/154/20 57/155/20 58/156/20
f 49/157/18 56/158/18 59/159/18 53/160/18
f 55/161/18 50/162/18 54/163/18 60/164/18
f 56/165/18 55/166/18 60/167/18 59/168/18
f 57/169/18 61/170/18 62/171/18 58/172/18
f 60/173/17 54/174/17 58/175/17 62/176/17
f 59/177/21 60/178/21 62/179/21 61/180/21
f 53/181/19 59/182/19 61/183/19 57/184/19
f 33/185/2 18/186/2 6/187/2 5/188/2
f 18/189/4 21/190/4 12/191/4 6/192/4
f 16/193/22 15/194/22 63/195/22 64/196/22
f 24/197/23 28/198/23 38/199/23 37/200/23
f 28/201/24 33/202/24 5/203/24 38/204/24
f 2/205/25 28/206/25 24/207/25 23/208/25
f 15/209/26 24/210/26 37/211/26 63/212/26
f 3/213/1 2/214/1 23/215/1 22/216/1
f 36/217/27 35/218/27 65/219/27 39/220/27
f 66/221/1 4/222/1 3/223/1 67/224/1
f 68/225/28 69/226/28 70/227/28 71/228/28
f 72/229/29 73/230/29 74/231/29 66/232/29
f 71/233/4 70/234/4 13/235/4 12/236/4
f 75/237/30 17/238/30 16/239/30 76/240/30
f 77/241/4 21/242/4 20/243/4 78/244/4
f 22/245/1 17/246/1 75/247/1 79/248/1
f 79/249/31 75/250/31 76/251/31 80/252/31
f 72/253/4 81/254/4 82/255/4 83/256/4
f 84/257/32 85/258/32 86/259/32 67/260/32
f 74/261/33 73/262/33 87/263/33 88/264/33
f 78/265/34 66/266/34 89/267/34 77/268/34
f 89/269/10 74/270/10 88/271/10 84/272/10
f 84/273/10 88/274/10 87/275/10 85/276/10
f 69/277/11 90/278/11 35/279/11 34/280/11
f 91/281/35 92/282/35 90/283/35 93/284/35
f 78/285/13 20/286/13 4/287/13 66/288/13
f 93/289/36 90/290/36 69/291/36 68/292/36
f 67/293/37 86/294/37 72/295/37 66/296/37
f 85/297/10 87/298/10 73/299/10 83/300/10
f 77/301/10 94/302/10 74/303/10 89/304/10
f 70/305/16 69/306/16 34/307/16 13/308/16
f 81/309/19 95/310/19 96/311/19 82/312/19
f 86/313/1 95/314/1 81/315/1 72/316/1
f 96/317/11 97/318/11 98/319/11 85/320/11
f 83/321/11 82/322/11 96/323/11 85/324/11
f 97/325/18 99/326/18 100/327/18 98/328/18
f 85/329/17 98/330/17 101/331/17 86/332/17
f 95/333/19 102/334/19 97/335/19 96/336/19
f 86/337/10 101/338/10 102/339/10 95/340/10
f 99/341/20 103/342/20 104/343/20 100/344/20
f 98/345/18 100/346/18 105/347/18 101/348/18
f 102/349/18 106/350/18 99/351/18 97/352/18
f 101/353/18 105/354/18 106/355/18 102/356/18
f 103/357/18 107/358/18 108/359/18 104/360/18
f 105/361/21 109/362/21 110/363/21 106/364/21
f 100/365/17 104/366/17 109/367/17 105/368/17
f 106/369/19 110/370/19 103/371/19 99/372/19
f 107/373/20 111/374/20 112/375/20 108/376/20
f 104/377/18 108/378/18 113/379/18 109/380/18
f 110/381/18 114/382/18 107/383/18 103/384/18
f 109/385/18 113/386/18 114/387/18 110/388/18
f 112/389/18 111/390/18 115/391/18 116/392/18
f 114/393/19 115/394/19 111/395/19 107/396/19
f 113/397/21 116/398/21 115/399/21 114/400/21
f 108/401/17 112/402/17 116/403/17 113/404/17
f 89/405/28 68/406/28 71/407/28 77/408/28
f 77/409/4 71/410/4 12/411/4 21/412/4
f 16/413/38 64/414/38 117/415/38 76/416/38
f 80/417/39 91/418/39 93/419/39 84/420/39
f 84/421/40 93/422/40 68/423/40 89/424/40
f 67/425/41 79/426/41 80/427/41 84/428/41
f 76/429/42 117/430/42 91/431/42 80/432/42
f 3/433/1 22/434/1 79/435/1 67/436/1
f 90/437/43 92/438/43 65/439/43 35/440/43
g Cube.001_Cube.001_Black
usemtl Black
f 39/441/44 65/442/44 118/443/44 119/444/44
f 64/445/45 63/446/45 119/447/45 118/448/45
f 63/449/46 37/450/46 39/451/46 119/452/46
f 92/453/47 120/454/47 118/455/47 65/456/47
f 64/457/48 118/458/48 120/459/48 117/460/48
f 117/461/49 120/462/49 92/463/49 91/464/49
